HIERARCHY
ROOT Hips
{
	OFFSET 0.000000 0.000000 0.000000
	CHANNELS 6 Xposition Yposition Zposition Yrotation Xrotation Zrotation
	JOINT Chest
	{
		OFFSET 0.000000 -0.009281 11.569106
		CHANNELS 3 Yrotation Xrotation Zrotation
		JOINT Chest2
		{
			OFFSET -0.000000 0.016865 9.269641
			CHANNELS 3 Yrotation Xrotation Zrotation
			JOINT Chest3
			{
				OFFSET -0.000000 0.000001 8.374491
				CHANNELS 3 Yrotation Xrotation Zrotation
				JOINT Chest4
				{
					OFFSET -0.000000 0.000001 8.374493
					CHANNELS 3 Yrotation Xrotation Zrotation
					JOINT Neck
					{
						OFFSET -0.000000 0.000002 12.152554
						CHANNELS 3 Yrotation Xrotation Zrotation
						JOINT Head
						{
							OFFSET -0.000000 0.040101 7.802319
							CHANNELS 3 Yrotation Xrotation Zrotation
							End Site
							{
								OFFSET -0.000000 0.020947 14.853096
							}
						}
					}
					JOINT RightCollar
					{
						OFFSET 2.894404 0.000001 6.791374
						CHANNELS 3 Yrotation Xrotation Zrotation
						JOINT RightShoulder
						{
							OFFSET 13.574684 0.000001 0.000000
							CHANNELS 3 Yrotation Xrotation Zrotation
							JOINT RightElbow
							{
								OFFSET 23.923903 0.000002 0.000000
								CHANNELS 3 Yrotation Xrotation Zrotation
								JOINT RightWrist
								{
									OFFSET 19.846718 0.012767 0.000000
									CHANNELS 3 Yrotation Xrotation Zrotation
									End Site
									{
										OFFSET 14.973145 0.000001 0.000000
									}
								}
							}
						}
					}
					JOINT LeftCollar
					{
						OFFSET -2.894404 0.000001 6.791374
						CHANNELS 3 Yrotation Xrotation Zrotation
						JOINT LeftShoulder
						{
							OFFSET -13.574684 -0.000001 0.000000
							CHANNELS 3 Yrotation Xrotation Zrotation
							JOINT LeftElbow
							{
								OFFSET -23.923903 -0.000002 0.000000
								CHANNELS 3 Yrotation Xrotation Zrotation
								JOINT LeftWrist
								{
									OFFSET -19.846718 0.012763 0.000000
									CHANNELS 3 Yrotation Xrotation Zrotation
									End Site
									{
										OFFSET -14.973145 -0.000001 0.000000
									}
								}
							}
						}
					}
				}
			}
		}
	}
	JOINT RightHip
	{
		OFFSET 9.469263 0.004643 0.045487
		CHANNELS 3 Yrotation Xrotation Zrotation
		JOINT RightKnee
		{
			OFFSET 0.000000 0.002661 -40.478676
			CHANNELS 3 Yrotation Xrotation Zrotation
			JOINT RightAnkle
			{
				OFFSET 0.000000 0.049106 -35.224068
				CHANNELS 3 Yrotation Xrotation Zrotation
				JOINT RightToe
				{
					OFFSET -0.000001 12.539529 -6.151390
					CHANNELS 3 Yrotation Xrotation Zrotation
					End Site
					{
						OFFSET -0.000001 5.044994 -1.291870
					}
				}
			}
		}
	}
	JOINT LeftHip
	{
		OFFSET -9.469263 0.004641 0.045487
		CHANNELS 3 Yrotation Xrotation Zrotation
		JOINT LeftKnee
		{
			OFFSET 0.000000 0.002661 -40.478676
			CHANNELS 3 Yrotation Xrotation Zrotation
			JOINT LeftAnkle
			{
				OFFSET 0.000000 0.049106 -35.224068
				CHANNELS 3 Yrotation Xrotation Zrotation
				JOINT LeftToe
				{
					OFFSET -0.000001 12.539529 -6.151390
					CHANNELS 3 Yrotation Xrotation Zrotation
					End Site
					{
						OFFSET -0.000001 5.044994 -1.291870
					}
				}
			}
		}
	}
}
MOTION
Frames: 9
Frame Time: 0.016667
10.085314 6.587652 83.100616 -4.942385 -1.387164 -106.763001 -0.865283 -3.003112 2.104606 -0.373791 -1.333084 0.948893 -0.373791 -1.333084 0.948893 -0.278261 -1.000397 0.710823 1.360421 -18.613570 -5.476514 0.717831 1.544846 -9.607925 9.901356 3.010432 -6.083217 56.160886 33.424893 23.117344 38.467431 20.071950 40.417788 26.180802 18.169534 -14.526035 -9.108691 -3.241321 -7.095923 -59.610893 40.032575 -28.122518 -37.532487 34.325286 -44.444676 -1.267487 64.426572 -24.223954 -0.522090 -6.005903 -2.054961 1.748851 -3.211623 -9.476771 -0.919913 3.769495 1.856308 0.025019 -0.036349 -0.009394 -0.623139 -7.245416 2.440860 0.658961 -1.407624 -0.358664 -0.803388 3.769351 0.318061 -0.000749 0.002981 0.000937 
10.106739 6.592512 83.103058 -4.900579 -1.352241 -106.653862 -0.872253 -2.986019 2.077627 -0.376215 -1.326273 0.935253 -0.376215 -1.326274 0.935254 -0.280120 -0.995285 0.700592 1.369470 -18.590843 -5.486185 0.729834 1.587176 -9.623425 9.840778 3.186010 -6.097520 55.809151 33.476215 22.980462 38.787456 20.054755 40.787516 25.992251 18.356046 -14.333439 -9.061804 -3.113110 -7.120576 -59.313342 39.572771 -28.039217 -37.220170 33.683631 -44.805040 -1.101908 63.534413 -24.652241 -0.534328 -6.027309 -2.060154 1.744650 -3.122235 -9.568879 -0.914224 3.747938 1.838830 0.023701 -0.034570 -0.007774 -0.636660 -7.223000 2.377747 0.658211 -1.347978 -0.363862 -0.829554 3.724166 0.280113 0.023351 0.011435 -0.000463 
10.126332 6.597932 83.106499 -4.861754 -1.321259 -106.544121 -0.875386 -2.968230 2.045592 -0.377733 -1.319373 0.919206 -0.377733 -1.319373 0.919203 -0.281304 -0.990101 0.688559 1.372286 -18.566742 -5.490491 0.732050 1.631869 -9.631167 9.797575 3.328789 -6.098570 55.450013 33.522664 22.863152 39.117798 20.119456 41.203806 25.792630 18.597427 -14.096084 -9.009243 -3.025668 -7.144263 -59.072783 39.144333 -27.961748 -36.798406 32.887388 -45.100193 -0.678057 62.502515 -24.971402 -0.545036 -6.041039 -2.058003 1.743374 -3.046444 -9.645029 -0.908344 3.727019 1.810277 0.020331 -0.031761 -0.005406 -0.649758 -7.201025 2.321841 0.662791 -1.292394 -0.375300 -0.856609 3.678178 0.244762 0.041155 0.018821 -0.001120 
10.142054 6.602560 83.109749 -4.831552 -1.292846 -106.438649 -0.878927 -2.953146 2.011285 -0.379450 -1.313637 0.902788 -0.379450 -1.313637 0.902786 -0.282634 -0.985791 0.676246 1.375515 -18.539051 -5.489833 0.736391 1.683452 -9.629764 9.760409 3.431460 -6.112677 55.177393 33.607126 22.812688 39.424774 20.290064 41.613252 25.710207 18.868794 -13.838655 -8.973889 -2.951728 -7.166053 -58.869086 38.787251 -27.870877 -36.392126 31.988317 -45.352132 -0.441393 61.433665 -25.289023 -0.558640 -6.058034 -2.072189 1.748269 -2.982377 -9.700944 -0.905589 3.713220 1.786708 0.017046 -0.029821 -0.002213 -0.665001 -7.182519 2.281380 0.672334 -1.243806 -0.390584 -0.883055 3.634112 0.205510 0.051991 0.024245 -0.002592 
10.153630 6.608201 83.111397 -4.806643 -1.267870 -106.332194 -0.886945 -2.938906 1.980471 -0.382331 -1.308195 0.887081 -0.382331 -1.308195 0.887081 -0.284838 -0.981704 0.664464 1.388606 -18.512265 -5.489549 0.758749 1.734036 -9.625797 9.725577 3.541507 -6.138410 55.037115 33.717389 22.796762 39.695584 20.607135 42.037936 25.679194 19.094806 -13.571541 -8.958236 -2.880497 -7.195019 -58.697491 38.501121 -27.802136 -35.952511 31.091455 -45.457064 -0.768099 60.201274 -25.559927 -0.576303 -6.066978 -2.104799 1.765710 -2.944469 -9.749073 -0.906316 3.712931 1.757430 0.013035 -0.028344 -0.000344 -0.678816 -7.160907 2.254076 0.683487 -1.209195 -0.424956 -0.905876 3.599356 0.169147 0.057477 0.024673 -0.003778 
10.159377 6.614261 83.111938 -4.785366 -1.244362 -106.221026 -0.896488 -2.923195 1.954851 -0.386016 -1.302089 0.873230 -0.386016 -1.302089 0.873230 -0.287639 -0.977121 0.654074 1.414529 -18.493186 -5.493317 0.803822 1.771004 -9.624823 9.695638 3.600453 -6.146118 55.058244 33.911425 22.830283 39.954090 21.087277 42.531106 25.602238 19.343693 -13.193880 -8.972593 -2.767348 -7.216250 -58.499013 38.205992 -27.681141 -35.384563 30.198052 -45.336337 -1.423642 58.594328 -25.482116 -0.594181 -6.068830 -2.146399 1.786974 -2.924441 -9.796626 -0.909673 3.722022 1.738464 0.010378 -0.028400 -0.000039 -0.687933 -7.133796 2.231396 0.689061 -1.185226 -0.482373 -0.921370 3.568736 0.143813 0.058584 0.022057 -0.003404 
10.163267 6.619321 83.112724 -4.772523 -1.224489 -106.093677 -0.903781 -2.908162 1.931404 -0.388996 -1.295717 0.860984 -0.388996 -1.295717 0.860985 -0.289910 -0.972340 0.644888 1.449720 -18.487203 -5.504887 0.864213 1.783978 -9.634737 9.665951 3.624184 -6.133662 55.232427 34.219866 22.864033 40.239957 21.725570 43.120244 25.397358 19.665124 -12.594330 -8.998530 -2.641511 -7.220368 -58.234589 37.858441 -27.475442 -34.651462 29.197846 -44.936979 -2.049314 56.724776 -24.955766 -0.607319 -6.077225 -2.213935 1.806672 -2.905007 -9.855312 -0.914040 3.730012 1.730574 0.009103 -0.028806 -0.000023 -0.688798 -7.104807 2.187331 0.686613 -1.180587 -0.552489 -0.927054 3.547904 0.130585 0.055090 0.018032 -0.002987 
10.167415 6.620999 83.113602 -4.764852 -1.207979 -105.956171 -0.905201 -2.888701 1.910274 -0.389460 -1.286735 0.850934 -0.389460 -1.286735 0.850936 -0.290291 -0.965597 0.637355 1.488108 -18.497187 -5.524194 0.928978 1.767241 -9.657320 9.643367 3.623374 -6.095563 55.582386 34.682789 22.905932 40.577761 22.505810 43.800552 25.013976 20.083707 -11.675503 -9.021206 -2.483315 -7.173623 -57.818528 37.386861 -27.094705 -33.778830 28.038664 -44.221117 -2.713422 54.633269 -24.023358 -0.613225 -6.105154 -2.299411 1.822435 -2.867094 -9.922650 -0.920015 3.733421 1.746310 0.009405 -0.028916 0.000911 -0.685871 -7.074367 2.117440 0.686109 -1.190738 -0.625599 -0.930198 3.534258 0.132237 0.048933 0.014624 -0.003139 
10.174853 6.620806 83.114197 -4.760515 -1.194244 -105.809500 -0.897322 -2.861548 1.886883 -0.385333 -1.274251 0.840695 -0.385333 -1.274251 0.840696 -0.287235 -0.956221 0.629693 1.521760 -18.524144 -5.548295 0.984602 1.718518 -9.689753 9.619369 3.588140 -6.047878 56.151361 35.295242 23.035537 40.907864 23.431176 44.491193 24.506205 20.758150 -10.322432 -9.052522 -2.276180 -7.083441 -57.180756 36.765546 -26.484193 -32.734450 26.849673 -43.199632 -3.860027 51.929532 -22.357537 -0.615348 -6.142375 -2.404940 1.837122 -2.823613 -9.977548 -0.924778 3.736554 1.760301 0.008381 -0.029064 0.001261 -0.681421 -7.046571 2.017818 0.688384 -1.207907 -0.688844 -0.928584 3.526484 0.144985 0.039168 0.011485 -0.003790 
